<mxfile host="65bd71144e" pages="4">
    <diagram id="AUzB75qRlcwsuzGjHnZr" name="Modèle de Cas d'Utilisation">
        <mxGraphModel dx="3294" dy="2122" grid="1" gridSize="10" guides="1" tooltips="1" connect="1" arrows="1" fold="1" page="1" pageScale="1" pageWidth="827" pageHeight="1169" math="0" shadow="0">
            <root>
                <mxCell id="0"/>
                <mxCell id="1" parent="0"/>
                <mxCell id="5Etwr2nJuHPNo3_mZ-Rd-55" value="&lt;span style=&quot;color: rgba(0, 0, 0, 0); font-family: monospace; font-size: 0px; text-align: start; text-wrap: nowrap; background-color: rgb(27, 29, 30);&quot;&gt;%3CmxGraphModel%3E%3Croot%3E%3CmxCell%20id%3D%220%22%2F%3E%3CmxCell%20id%3D%221%22%20parent%3D%220%22%2F%3E%3CmxCell%20id%3D%222%22%20value%3D%22%22%20style%3D%22endArrow%3Dblock%3Bdashed%3D1%3BendFill%3D0%3BendSize%3D12%3Bhtml%3D1%3Brounded%3D0%3BentryX%3D1%3BentryY%3D0.5%3BentryDx%3D0%3BentryDy%3D0%3BexitX%3D0%3BexitY%3D0.5%3BexitDx%3D0%3BexitDy%3D0%3B%22%20edge%3D%221%22%20parent%3D%221%22%3E%3CmxGeometry%20width%3D%22160%22%20relative%3D%221%22%20as%3D%22geometry%22%3E%3CmxPoint%20x%3D%22730%22%20y%3D%22155%22%20as%3D%22sourcePoint%22%2F%3E%3CmxPoint%20x%3D%22624%22%20y%3D%2265%22%20as%3D%22targetPoint%22%2F%3E%3C%2FmxGeometry%3E%3C%2FmxCell%3E%3C%2Froot%3E%3C%2FmxGraphModel%3E&lt;/span&gt;&lt;span style=&quot;color: rgba(0, 0, 0, 0); font-family: monospace; font-size: 0px; text-align: start; text-wrap: nowrap; background-color: rgb(27, 29, 30);&quot;&gt;%3CmxGraphModel%3E%3Croot%3E%3CmxCell%20id%3D%220%22%2F%3E%3CmxCell%20id%3D%221%22%20parent%3D%220%22%2F%3E%3CmxCell%20id%3D%222%22%20value%3D%22%22%20style%3D%22endArrow%3Dblock%3Bdashed%3D1%3BendFill%3D0%3BendSize%3D12%3Bhtml%3D1%3Brounded%3D0%3BentryX%3D1%3BentryY%3D0.5%3BentryDx%3D0%3BentryDy%3D0%3BexitX%3D0%3BexitY%3D0.5%3BexitDx%3D0%3BexitDy%3D0%3B%22%20edge%3D%221%22%20parent%3D%221%22%3E%3CmxGeometry%20width%3D%22160%22%20relative%3D%221%22%20as%3D%22geometry%22%3E%3CmxPoint%20x%3D%22730%22%20y%3D%22155%22%20as%3D%22sourcePoint%22%2F%3E%3CmxPoint%20x%3D%22624%22%20y%3D%2265%22%20as%3D%22targetPoint%22%2F%3E%3C%2FmxGeometry%3E%3C%2FmxCell%3E%3C%2Froot%3E%3C%2FmxGraphModel%3E&lt;/span&gt;&lt;span style=&quot;color: rgba(0, 0, 0, 0); font-family: monospace; font-size: 0px; text-align: start; text-wrap: nowrap; background-color: rgb(27, 29, 30);&quot;&gt;%3CmxGraphModel%3E%3Croot%3E%3CmxCell%20id%3D%220%22%2F%3E%3CmxCell%20id%3D%221%22%20parent%3D%220%22%2F%3E%3CmxCell%20id%3D%222%22%20value%3D%22%22%20style%3D%22endArrow%3Dblock%3Bdashed%3D1%3BendFill%3D0%3BendSize%3D12%3Bhtml%3D1%3Brounded%3D0%3BentryX%3D1%3BentryY%3D0.5%3BentryDx%3D0%3BentryDy%3D0%3BexitX%3D0%3BexitY%3D0.5%3BexitDx%3D0%3BexitDy%3D0%3B%22%20edge%3D%221%22%20parent%3D%221%22%3E%3CmxGeometry%20width%3D%22160%22%20relative%3D%221%22%20as%3D%22geometry%22%3E%3CmxPoint%20x%3D%22730%22%20y%3D%22155%22%20as%3D%22sourcePoint%22%2F%3E%3CmxPoint%20x%3D%22624%22%20y%3D%2265%22%20as%3D%22targetPoint%22%2F%3E%3C%2FmxGeometry%3E%3C%2FmxCell%3E%3C%2Froot%3E%3C%2FmxGraphModel%3E&lt;/span&gt;" style="whiteSpace=wrap;html=1;labelBackgroundColor=default;" parent="1" vertex="1">
                    <mxGeometry x="260" y="-120" width="990" height="760" as="geometry"/>
                </mxCell>
                <object label="Usager de la route/Chauffeur&lt;div&gt;(Voyageur)&lt;/div&gt;" Malade="" id="5Etwr2nJuHPNo3_mZ-Rd-56">
                    <mxCell style="shape=umlActor;verticalLabelPosition=bottom;verticalAlign=top;html=1;outlineConnect=0;" parent="1" vertex="1">
                        <mxGeometry x="-70" y="70" width="30" height="60" as="geometry"/>
                    </mxCell>
                </object>
                <mxCell id="5Etwr2nJuHPNo3_mZ-Rd-59" value="Système" style="rounded=0;labelBackgroundColor=none;labelBorderColor=none;fontColor=default;whiteSpace=wrap;html=1;" parent="1" vertex="1">
                    <mxGeometry x="1160" y="-120" width="90" height="30" as="geometry"/>
                </mxCell>
                <object label="Gouvernement&amp;nbsp;&lt;div&gt;&lt;br&gt;&lt;/div&gt;" Malade="" id="5Etwr2nJuHPNo3_mZ-Rd-60">
                    <mxCell style="shape=umlActor;verticalLabelPosition=bottom;verticalAlign=top;html=1;outlineConnect=0;" parent="1" vertex="1">
                        <mxGeometry x="-80" y="585" width="30" height="60" as="geometry"/>
                    </mxCell>
                </object>
                <mxCell id="5Etwr2nJuHPNo3_mZ-Rd-62" value="Organisme de transports" style="shape=umlActor;verticalLabelPosition=bottom;verticalAlign=top;html=1;" parent="1" vertex="1">
                    <mxGeometry x="60" y="650" width="30" height="60" as="geometry"/>
                </mxCell>
                <mxCell id="5Etwr2nJuHPNo3_mZ-Rd-63" value="" style="endArrow=none;html=1;entryX=0.743;entryY=0.121;entryDx=0;entryDy=0;entryPerimeter=0;exitX=0.246;exitY=0.126;exitDx=0;exitDy=0;exitPerimeter=0;" parent="1" source="5Etwr2nJuHPNo3_mZ-Rd-62" target="5Etwr2nJuHPNo3_mZ-Rd-62" edge="1">
                    <mxGeometry width="50" height="50" relative="1" as="geometry">
                        <mxPoint x="630" y="700" as="sourcePoint"/>
                        <mxPoint x="680" y="650" as="targetPoint"/>
                    </mxGeometry>
                </mxCell>
                <mxCell id="5Etwr2nJuHPNo3_mZ-Rd-70" value="S'inscrire/S'authentifier" style="ellipse;whiteSpace=wrap;html=1;" parent="1" vertex="1">
                    <mxGeometry x="1080" y="160" width="140" height="70" as="geometry"/>
                </mxCell>
                <mxCell id="5Etwr2nJuHPNo3_mZ-Rd-71" value="Chercher tous les itinéraires suivant un critère" style="ellipse;whiteSpace=wrap;html=1;" parent="1" vertex="1">
                    <mxGeometry x="300" y="-30" width="140" height="70" as="geometry"/>
                </mxCell>
                <mxCell id="5Etwr2nJuHPNo3_mZ-Rd-72" value="Chercher le chemin optimal" style="ellipse;whiteSpace=wrap;html=1;" parent="1" vertex="1">
                    <mxGeometry x="300" y="70" width="140" height="70" as="geometry"/>
                </mxCell>
                <mxCell id="5Etwr2nJuHPNo3_mZ-Rd-73" value="" style="endArrow=block;dashed=1;endFill=0;endSize=12;html=1;rounded=0;entryX=0.975;entryY=0.368;entryDx=0;entryDy=0;entryPerimeter=0;exitX=0;exitY=0.5;exitDx=0;exitDy=0;" parent="1" source="5Etwr2nJuHPNo3_mZ-Rd-89" target="5Etwr2nJuHPNo3_mZ-Rd-72" edge="1">
                    <mxGeometry width="160" relative="1" as="geometry">
                        <mxPoint x="460.00305941280556" y="146.24614460939847" as="sourcePoint"/>
                        <mxPoint x="510.9" y="130" as="targetPoint"/>
                    </mxGeometry>
                </mxCell>
                <mxCell id="5Etwr2nJuHPNo3_mZ-Rd-74" value="Laisser un avis" style="ellipse;whiteSpace=wrap;html=1;" parent="1" vertex="1">
                    <mxGeometry x="330" y="230" width="140" height="70" as="geometry"/>
                </mxCell>
                <mxCell id="5Etwr2nJuHPNo3_mZ-Rd-75" value="Demander suivi" style="ellipse;whiteSpace=wrap;html=1;" parent="1" vertex="1">
                    <mxGeometry x="730" y="120" width="140" height="70" as="geometry"/>
                </mxCell>
                <mxCell id="5Etwr2nJuHPNo3_mZ-Rd-76" value="Partager son itinraire" style="ellipse;whiteSpace=wrap;html=1;" parent="1" vertex="1">
                    <mxGeometry x="344" y="330" width="140" height="70" as="geometry"/>
                </mxCell>
                <mxCell id="5Etwr2nJuHPNo3_mZ-Rd-77" value="Demander des informations sur un lieu ou un itinéraire" style="ellipse;whiteSpace=wrap;html=1;" parent="1" vertex="1">
                    <mxGeometry x="360" y="430" width="140" height="70" as="geometry"/>
                </mxCell>
                <mxCell id="5Etwr2nJuHPNo3_mZ-Rd-78" value="Réserver une route" style="ellipse;whiteSpace=wrap;html=1;" parent="1" vertex="1">
                    <mxGeometry x="360" y="540" width="140" height="70" as="geometry"/>
                </mxCell>
                <mxCell id="5Etwr2nJuHPNo3_mZ-Rd-79" value="" style="endArrow=none;startArrow=none;endFill=0;startFill=0;endSize=8;html=1;verticalAlign=bottom;labelBackgroundColor=none;strokeWidth=3;rounded=0;exitX=0.5;exitY=0.5;exitDx=0;exitDy=0;exitPerimeter=0;entryX=0.037;entryY=0.341;entryDx=0;entryDy=0;entryPerimeter=0;" parent="1" source="5Etwr2nJuHPNo3_mZ-Rd-56" target="5Etwr2nJuHPNo3_mZ-Rd-71" edge="1">
                    <mxGeometry width="160" relative="1" as="geometry">
                        <mxPoint x="150" y="300" as="sourcePoint"/>
                        <mxPoint x="310" y="300" as="targetPoint"/>
                    </mxGeometry>
                </mxCell>
                <mxCell id="5Etwr2nJuHPNo3_mZ-Rd-80" value="" style="endArrow=none;startArrow=none;endFill=0;startFill=0;endSize=8;html=1;verticalAlign=bottom;labelBackgroundColor=none;strokeWidth=3;rounded=0;exitX=0.5;exitY=0.5;exitDx=0;exitDy=0;exitPerimeter=0;entryX=0.049;entryY=0.295;entryDx=0;entryDy=0;entryPerimeter=0;" parent="1" source="5Etwr2nJuHPNo3_mZ-Rd-56" target="5Etwr2nJuHPNo3_mZ-Rd-72" edge="1">
                    <mxGeometry width="160" relative="1" as="geometry">
                        <mxPoint x="150" y="310" as="sourcePoint"/>
                        <mxPoint x="310" y="310" as="targetPoint"/>
                    </mxGeometry>
                </mxCell>
                <mxCell id="5Etwr2nJuHPNo3_mZ-Rd-81" value="" style="endArrow=none;startArrow=none;endFill=0;startFill=0;endSize=8;html=1;verticalAlign=bottom;labelBackgroundColor=none;strokeWidth=3;rounded=0;entryX=0;entryY=0;entryDx=0;entryDy=0;exitX=0.5;exitY=0.5;exitDx=0;exitDy=0;exitPerimeter=0;" parent="1" source="5Etwr2nJuHPNo3_mZ-Rd-56" target="5Etwr2nJuHPNo3_mZ-Rd-74" edge="1">
                    <mxGeometry width="160" relative="1" as="geometry">
                        <mxPoint x="105" y="110" as="sourcePoint"/>
                        <mxPoint x="290" y="120" as="targetPoint"/>
                    </mxGeometry>
                </mxCell>
                <mxCell id="5Etwr2nJuHPNo3_mZ-Rd-82" value="" style="endArrow=none;startArrow=none;endFill=0;startFill=0;endSize=8;html=1;verticalAlign=bottom;labelBackgroundColor=none;strokeWidth=3;rounded=0;exitX=0.5;exitY=0.5;exitDx=0;exitDy=0;exitPerimeter=0;entryX=0.051;entryY=0.31;entryDx=0;entryDy=0;entryPerimeter=0;" parent="1" source="5Etwr2nJuHPNo3_mZ-Rd-56" target="5Etwr2nJuHPNo3_mZ-Rd-76" edge="1">
                    <mxGeometry width="160" relative="1" as="geometry">
                        <mxPoint x="150" y="310" as="sourcePoint"/>
                        <mxPoint x="310" y="310" as="targetPoint"/>
                    </mxGeometry>
                </mxCell>
                <mxCell id="5Etwr2nJuHPNo3_mZ-Rd-83" value="" style="endArrow=none;startArrow=none;endFill=0;startFill=0;endSize=8;html=1;verticalAlign=bottom;labelBackgroundColor=none;strokeWidth=3;rounded=0;entryX=0.035;entryY=0.35;entryDx=0;entryDy=0;entryPerimeter=0;exitX=0.5;exitY=0.5;exitDx=0;exitDy=0;exitPerimeter=0;" parent="1" source="5Etwr2nJuHPNo3_mZ-Rd-56" target="5Etwr2nJuHPNo3_mZ-Rd-77" edge="1">
                    <mxGeometry width="160" relative="1" as="geometry">
                        <mxPoint x="150" y="310" as="sourcePoint"/>
                        <mxPoint x="310" y="310" as="targetPoint"/>
                    </mxGeometry>
                </mxCell>
                <mxCell id="5Etwr2nJuHPNo3_mZ-Rd-84" value="" style="endArrow=none;startArrow=none;endFill=0;startFill=0;endSize=8;html=1;verticalAlign=bottom;labelBackgroundColor=none;strokeWidth=3;rounded=0;exitX=0.5;exitY=0.5;exitDx=0;exitDy=0;exitPerimeter=0;entryX=0.005;entryY=0.344;entryDx=0;entryDy=0;entryPerimeter=0;" parent="1" source="5Etwr2nJuHPNo3_mZ-Rd-60" target="5Etwr2nJuHPNo3_mZ-Rd-78" edge="1">
                    <mxGeometry width="160" relative="1" as="geometry">
                        <mxPoint x="150" y="310" as="sourcePoint"/>
                        <mxPoint x="310" y="310" as="targetPoint"/>
                    </mxGeometry>
                </mxCell>
                <mxCell id="5Etwr2nJuHPNo3_mZ-Rd-88" value="" style="endArrow=block;dashed=1;endFill=0;endSize=12;html=1;rounded=0;entryX=1;entryY=0.5;entryDx=0;entryDy=0;exitX=0;exitY=0.5;exitDx=0;exitDy=0;" parent="1" source="5Etwr2nJuHPNo3_mZ-Rd-75" target="5Etwr2nJuHPNo3_mZ-Rd-89" edge="1">
                    <mxGeometry width="160" relative="1" as="geometry">
                        <mxPoint x="737.0000000000001" y="204.73999999999978" as="sourcePoint"/>
                        <mxPoint x="586.62" y="200" as="targetPoint"/>
                    </mxGeometry>
                </mxCell>
                <mxCell id="5Etwr2nJuHPNo3_mZ-Rd-89" value="Choisir son itinéraire" style="ellipse;whiteSpace=wrap;html=1;" parent="1" vertex="1">
                    <mxGeometry x="483.9999999999999" y="30" width="140" height="70" as="geometry"/>
                </mxCell>
                <mxCell id="5Etwr2nJuHPNo3_mZ-Rd-90" value="" style="endArrow=block;dashed=1;endFill=0;endSize=12;html=1;rounded=0;exitX=0.244;exitY=0.097;exitDx=0;exitDy=0;exitPerimeter=0;entryX=1;entryY=0.5;entryDx=0;entryDy=0;" parent="1" source="5Etwr2nJuHPNo3_mZ-Rd-89" target="5Etwr2nJuHPNo3_mZ-Rd-71" edge="1">
                    <mxGeometry width="160" relative="1" as="geometry">
                        <mxPoint x="459.99999999999983" y="-24.999999999999964" as="sourcePoint"/>
                        <mxPoint x="528.8425253169374" y="-0.4587373415315241" as="targetPoint"/>
                    </mxGeometry>
                </mxCell>
                <mxCell id="5Etwr2nJuHPNo3_mZ-Rd-93" value="Visualiser les itinéraires" style="ellipse;whiteSpace=wrap;html=1;" parent="1" vertex="1">
                    <mxGeometry x="560" y="-110" width="140" height="70" as="geometry"/>
                </mxCell>
                <mxCell id="5Etwr2nJuHPNo3_mZ-Rd-95" value="" style="endArrow=block;dashed=1;endFill=0;endSize=12;html=1;rounded=0;exitX=1;exitY=0;exitDx=0;exitDy=0;" parent="1" source="5Etwr2nJuHPNo3_mZ-Rd-71" target="5Etwr2nJuHPNo3_mZ-Rd-93" edge="1">
                    <mxGeometry width="160" relative="1" as="geometry">
                        <mxPoint x="566" y="-60" as="sourcePoint"/>
                        <mxPoint x="460" y="-150" as="targetPoint"/>
                    </mxGeometry>
                </mxCell>
                <mxCell id="5Etwr2nJuHPNo3_mZ-Rd-96" value="Use" style="endArrow=open;endSize=12;dashed=1;html=1;rounded=0;entryX=0.047;entryY=0.314;entryDx=0;entryDy=0;entryPerimeter=0;" parent="1" source="5Etwr2nJuHPNo3_mZ-Rd-93" target="5Etwr2nJuHPNo3_mZ-Rd-70" edge="1">
                    <mxGeometry width="160" relative="1" as="geometry">
                        <mxPoint x="610" y="160" as="sourcePoint"/>
                        <mxPoint x="770" y="160" as="targetPoint"/>
                    </mxGeometry>
                </mxCell>
                <mxCell id="5Etwr2nJuHPNo3_mZ-Rd-105" value="Use" style="endArrow=open;endSize=12;dashed=1;html=1;rounded=0;entryX=0.786;entryY=1;entryDx=0;entryDy=0;entryPerimeter=0;" parent="1" target="5Etwr2nJuHPNo3_mZ-Rd-70" edge="1">
                    <mxGeometry width="160" relative="1" as="geometry">
                        <mxPoint x="500" y="574.47" as="sourcePoint"/>
                        <mxPoint x="660" y="574.47" as="targetPoint"/>
                    </mxGeometry>
                </mxCell>
                <mxCell id="5Etwr2nJuHPNo3_mZ-Rd-106" value="Use" style="endArrow=open;endSize=12;dashed=1;html=1;rounded=0;entryX=0;entryY=0.5;entryDx=0;entryDy=0;exitX=1;exitY=1;exitDx=0;exitDy=0;" parent="1" source="5Etwr2nJuHPNo3_mZ-Rd-72" target="5Etwr2nJuHPNo3_mZ-Rd-70" edge="1">
                    <mxGeometry width="160" relative="1" as="geometry">
                        <mxPoint x="850" y="300" as="sourcePoint"/>
                        <mxPoint x="1010" y="300" as="targetPoint"/>
                        <Array as="points">
                            <mxPoint x="750" y="220"/>
                        </Array>
                    </mxGeometry>
                </mxCell>
                <mxCell id="5Etwr2nJuHPNo3_mZ-Rd-107" value="Use" style="endArrow=open;endSize=12;dashed=1;html=1;rounded=0;entryX=0.733;entryY=0.983;entryDx=0;entryDy=0;entryPerimeter=0;exitX=0.962;exitY=0.338;exitDx=0;exitDy=0;exitPerimeter=0;" parent="1" source="5Etwr2nJuHPNo3_mZ-Rd-77" target="5Etwr2nJuHPNo3_mZ-Rd-70" edge="1">
                    <mxGeometry width="160" relative="1" as="geometry">
                        <mxPoint x="720" y="364.47" as="sourcePoint"/>
                        <mxPoint x="880" y="364.47" as="targetPoint"/>
                    </mxGeometry>
                </mxCell>
                <mxCell id="5Etwr2nJuHPNo3_mZ-Rd-108" value="Use" style="endArrow=open;endSize=12;dashed=1;html=1;rounded=0;entryX=0.414;entryY=0.995;entryDx=0;entryDy=0;entryPerimeter=0;exitX=0.222;exitY=0.534;exitDx=0;exitDy=0;exitPerimeter=0;" parent="1" source="5Etwr2nJuHPNo3_mZ-Rd-55" target="5Etwr2nJuHPNo3_mZ-Rd-70" edge="1">
                    <mxGeometry width="160" relative="1" as="geometry">
                        <mxPoint x="660" y="300" as="sourcePoint"/>
                        <mxPoint x="820" y="300" as="targetPoint"/>
                    </mxGeometry>
                </mxCell>
                <mxCell id="5Etwr2nJuHPNo3_mZ-Rd-109" value="Use" style="endArrow=open;endSize=12;dashed=1;html=1;rounded=0;entryX=0;entryY=1;entryDx=0;entryDy=0;" parent="1" source="5Etwr2nJuHPNo3_mZ-Rd-74" target="5Etwr2nJuHPNo3_mZ-Rd-70" edge="1">
                    <mxGeometry width="160" relative="1" as="geometry">
                        <mxPoint x="640" y="250" as="sourcePoint"/>
                        <mxPoint x="800" y="250" as="targetPoint"/>
                    </mxGeometry>
                </mxCell>
                <mxCell id="5Etwr2nJuHPNo3_mZ-Rd-110" value="Use" style="endArrow=open;endSize=12;dashed=1;html=1;rounded=0;exitX=0.927;exitY=0.244;exitDx=0;exitDy=0;exitPerimeter=0;" parent="1" source="5Etwr2nJuHPNo3_mZ-Rd-71" target="5Etwr2nJuHPNo3_mZ-Rd-70" edge="1">
                    <mxGeometry width="160" relative="1" as="geometry">
                        <mxPoint x="630" y="160" as="sourcePoint"/>
                        <mxPoint x="790" y="160" as="targetPoint"/>
                    </mxGeometry>
                </mxCell>
                <mxCell id="5Etwr2nJuHPNo3_mZ-Rd-112" value="" style="endArrow=none;startArrow=none;endFill=0;startFill=0;endSize=8;html=1;verticalAlign=bottom;labelBackgroundColor=none;strokeWidth=3;rounded=0;entryX=0;entryY=0.5;entryDx=0;entryDy=0;" parent="1" target="5Etwr2nJuHPNo3_mZ-Rd-71" edge="1">
                    <mxGeometry width="160" relative="1" as="geometry">
                        <mxPoint x="-60" y="620" as="sourcePoint"/>
                        <mxPoint x="530" y="280" as="targetPoint"/>
                    </mxGeometry>
                </mxCell>
                <mxCell id="5Etwr2nJuHPNo3_mZ-Rd-113" value="" style="endArrow=none;startArrow=none;endFill=0;startFill=0;endSize=8;html=1;verticalAlign=bottom;labelBackgroundColor=none;strokeWidth=3;rounded=0;entryX=0;entryY=0.5;entryDx=0;entryDy=0;" parent="1" target="5Etwr2nJuHPNo3_mZ-Rd-74" edge="1">
                    <mxGeometry width="160" relative="1" as="geometry">
                        <mxPoint x="-40" y="600" as="sourcePoint"/>
                        <mxPoint x="530" y="280" as="targetPoint"/>
                    </mxGeometry>
                </mxCell>
                <mxCell id="5Etwr2nJuHPNo3_mZ-Rd-114" value="" style="endArrow=none;startArrow=none;endFill=0;startFill=0;endSize=8;html=1;verticalAlign=bottom;labelBackgroundColor=none;strokeWidth=3;rounded=0;entryX=0;entryY=0.5;entryDx=0;entryDy=0;" parent="1" target="5Etwr2nJuHPNo3_mZ-Rd-72" edge="1">
                    <mxGeometry width="160" relative="1" as="geometry">
                        <mxPoint x="-50" y="610" as="sourcePoint"/>
                        <mxPoint x="530" y="280" as="targetPoint"/>
                    </mxGeometry>
                </mxCell>
                <mxCell id="5Etwr2nJuHPNo3_mZ-Rd-115" value="" style="endArrow=none;startArrow=none;endFill=0;startFill=0;endSize=8;html=1;verticalAlign=bottom;labelBackgroundColor=none;strokeWidth=3;rounded=0;entryX=0;entryY=1;entryDx=0;entryDy=0;" parent="1" target="5Etwr2nJuHPNo3_mZ-Rd-77" edge="1">
                    <mxGeometry width="160" relative="1" as="geometry">
                        <mxPoint x="-50" y="610" as="sourcePoint"/>
                        <mxPoint x="80" y="614" as="targetPoint"/>
                    </mxGeometry>
                </mxCell>
                <mxCell id="5Etwr2nJuHPNo3_mZ-Rd-117" value="" style="endArrow=none;startArrow=none;endFill=0;startFill=0;endSize=8;html=1;verticalAlign=bottom;labelBackgroundColor=none;strokeWidth=3;rounded=0;" parent="1" edge="1">
                    <mxGeometry width="160" relative="1" as="geometry">
                        <mxPoint x="-60" y="610" as="sourcePoint"/>
                        <mxPoint x="360" y="380" as="targetPoint"/>
                    </mxGeometry>
                </mxCell>
                <mxCell id="5Etwr2nJuHPNo3_mZ-Rd-119" value="&lt;b&gt;&lt;i&gt;&lt;font style=&quot;font-size: 38px;&quot;&gt;&lt;u&gt;Diagramme des cas d'utilisation&lt;/u&gt;&lt;/font&gt;&lt;/i&gt;&lt;/b&gt;" style="text;html=1;align=center;verticalAlign=middle;resizable=0;points=[];autosize=1;strokeColor=none;fillColor=none;" parent="1" vertex="1">
                    <mxGeometry x="350" y="-217" width="600" height="60" as="geometry"/>
                </mxCell>
            </root>
        </mxGraphModel>
    </diagram>
    <diagram id="7_C0xa3l1ptunwqtjRLV" name="Modèle de Séquence">
        <mxGraphModel dx="2467" dy="953" grid="1" gridSize="10" guides="1" tooltips="1" connect="1" arrows="1" fold="1" page="1" pageScale="1" pageWidth="827" pageHeight="1169" math="0" shadow="0">
            <root>
                <mxCell id="0"/>
                <mxCell id="1" parent="0"/>
            </root>
        </mxGraphModel>
    </diagram>
    <diagram id="fDSpz4szXHU6pNgY5aDu" name="Modèle d'État-transition">
        <mxGraphModel dx="2467" dy="953" grid="1" gridSize="10" guides="1" tooltips="1" connect="1" arrows="1" fold="1" page="1" pageScale="1" pageWidth="827" pageHeight="1169" math="0" shadow="0">
            <root>
                <mxCell id="0"/>
                <mxCell id="1" parent="0"/>
            </root>
        </mxGraphModel>
    </diagram>
    <diagram id="CCjT24_dsCu7uzjeiE8k" name="Modèle d'Activité">
        <mxGraphModel dx="2114" dy="817" grid="1" gridSize="10" guides="1" tooltips="1" connect="1" arrows="1" fold="1" page="1" pageScale="1" pageWidth="827" pageHeight="1169" math="0" shadow="0">
            <root>
                <mxCell id="0"/>
                <mxCell id="1" parent="0"/>
            </root>
        </mxGraphModel>
    </diagram>
</mxfile>